# xmcd
# 
# Track frame offsets:
#     150
#     2341
#     35353
#     70759
#     104086
#     135303
#     173458
#     202658
#     231118
#     252413
#     275708
#     303642
#     330253
# 
# Disc length: 4440
# 
# Revision: 0
# Processed by: cddbd v1.5.2PL0 Copyright (c) Steve Scherf et al.
# Submitted via: fre:ac v1.0.27
# 
DISCID=a311560d
DTITLE=Gregg Hurwitz - You're Next 8
DYEAR=0
DGENRE=
TTITLE0=0801
TTITLE1=0802
TTITLE2=0803
TTITLE3=0804
TTITLE4=0805
TTITLE5=0806
TTITLE6=0807
TTITLE7=0808
TTITLE8=0809
TTITLE9=0810
TTITLE10=0811
TTITLE11=0812
TTITLE12=0813
EXTD=
EXTT0=
EXTT1=
EXTT2=
EXTT3=
EXTT4=
EXTT5=
EXTT6=
EXTT7=
EXTT8=
EXTT9=
EXTT10=
EXTT11=
EXTT12=
PLAYORDER=
